<svg width="1945" height="100" viewBox="0 0 1945 100" fill="none" xmlns="http://www.w3.org/2000/svg">
<path d="M165.271 57.5969L162.48 65.5039H162.247C161.782 63.721 160.93 61.0078 159.534 57.752L144.573 20.1551H129.922V80.0775H139.612V43.1008C139.612 40.7752 139.612 38.1396 139.534 34.8837C139.457 33.2558 139.302 32.0155 139.224 31.0853H139.457C139.922 33.4109 140.465 35.1163 140.852 36.2016L158.837 79.9225H165.658L183.488 35.814C183.875 34.8062 184.263 32.7907 184.651 31.0853H184.883C184.651 35.5039 184.496 39.4574 184.418 41.8605V79.845H194.728V20H180.62L165.271 57.5969ZM204.496 36.8992H214.573V79.845H204.496V36.8992ZM209.612 18.7597C207.906 18.7597 206.511 19.3799 205.348 20.4651C204.185 21.5504 203.565 22.9458 203.565 24.6512C203.565 26.2791 204.185 27.6744 205.348 28.7597C206.511 29.845 207.906 30.3876 209.612 30.3876C211.317 30.3876 212.79 29.7675 213.875 28.7597C215.038 27.6744 215.658 26.2791 215.658 24.6512C215.658 23.0233 215.038 21.6279 213.875 20.4651C212.868 19.3799 211.395 18.7597 209.612 18.7597ZM250.309 36.5117C248.449 36.1241 246.511 35.8915 244.651 35.8915C240.077 35.8915 235.891 36.8993 232.402 38.9148C228.914 40.9303 226.123 43.721 224.34 47.2093C222.48 50.7752 221.55 54.8837 221.55 59.6124C221.55 63.721 222.48 67.3644 224.263 70.6977C226.046 73.9535 228.527 76.5892 231.86 78.3721C235.038 80.1551 238.759 81.0853 242.945 81.0853C247.751 81.0853 251.86 80.0775 255.116 78.2171L255.193 78.1396V68.8372L254.806 69.1473C253.333 70.2326 251.627 71.1628 249.922 71.7055C248.139 72.3256 246.511 72.6357 245.116 72.6357C241.085 72.6357 237.906 71.4729 235.658 68.9148C233.333 66.4341 232.17 63.0233 232.17 58.7597C232.17 54.3411 233.333 50.8527 235.736 48.2946C238.139 45.7365 241.317 44.4186 245.193 44.4186C248.449 44.4186 251.782 45.5039 254.806 47.6744L255.193 47.9845V38.1396L255.116 38.062C253.798 37.5194 252.325 36.8992 250.309 36.5117ZM283.565 36.2016C281.085 36.2016 278.759 36.9768 276.744 38.6047C275.038 40 273.875 42.0155 272.868 44.4186H272.79V36.8992H262.713V79.845H272.79V57.907C272.79 54.1861 273.565 51.0853 275.271 48.8372C276.976 46.5117 279.147 45.3489 281.782 45.3489C282.713 45.3489 283.643 45.5814 284.806 45.7365C285.891 46.0465 286.666 46.3566 287.209 46.7442L287.596 47.0543V36.9768L287.364 36.8992C286.666 36.4341 285.271 36.2016 283.565 36.2016ZM311.007 35.969C303.953 35.969 298.294 38.062 294.34 42.1706C290.309 46.2791 288.371 51.938 288.371 59.0698C288.371 65.7365 290.387 71.1628 294.263 75.1163C298.139 78.9923 303.41 81.0078 309.999 81.0078C316.899 81.0078 322.402 78.9148 326.356 74.7287C330.387 70.5427 332.325 64.9613 332.325 58.062C332.325 51.2403 330.465 45.814 326.666 41.8605C323.023 37.907 317.674 35.969 311.007 35.969ZM319.069 68.9923C317.209 71.3954 314.263 72.5582 310.62 72.5582C306.976 72.5582 304.03 71.3954 301.937 68.8372C299.844 66.4341 298.837 62.9458 298.837 58.5272C298.837 53.9535 299.922 50.4651 301.937 47.9845C304.03 45.5039 306.899 44.2636 310.542 44.2636C314.108 44.2636 316.899 45.4264 318.914 47.8295C320.93 50.2326 322.015 53.721 322.015 58.2946C321.86 62.9458 321.007 66.5892 319.069 68.9923ZM354.806 54.7287C351.627 53.4109 349.612 52.4031 348.682 51.5504C347.906 50.7752 347.519 49.6899 347.519 48.2946C347.519 47.1318 347.984 45.969 349.147 45.1938C350.309 44.4186 351.627 44.031 353.565 44.031C355.271 44.031 357.054 44.3411 358.759 44.8062C360.465 45.2713 362.015 45.969 363.255 46.8993L363.643 47.2093V37.752L363.41 37.6744C362.247 37.2093 360.697 36.7442 358.837 36.3566C356.976 36.0465 355.271 35.8915 353.875 35.8915C349.069 35.8915 345.116 37.0543 342.015 39.6124C338.914 42.0155 337.441 45.2713 337.441 49.0698C337.441 51.0853 337.751 52.8682 338.449 54.3411C339.147 55.814 340.154 57.2093 341.55 58.3721C342.945 59.4574 344.961 60.6977 347.751 61.8605C350.077 62.8682 351.86 63.6434 352.945 64.2636C354.03 64.8837 354.728 65.5814 355.271 66.1241C355.658 66.7442 355.891 67.5194 355.891 68.5272C355.891 71.3954 353.72 72.7907 349.302 72.7907C347.596 72.7907 345.813 72.4806 343.72 71.783C341.627 71.0853 339.689 70.0775 338.061 68.9148L337.674 68.6047V78.4496L337.906 78.5272C339.379 79.2248 341.162 79.69 343.333 80.2326C345.503 80.6202 347.441 80.9303 349.147 80.9303C354.34 80.9303 358.604 79.7675 361.627 77.2093C364.728 74.7287 366.356 71.5504 366.356 67.4419C366.356 64.5737 365.581 62.0155 363.875 60.0775C361.627 58.2171 358.837 56.2791 354.806 54.7287ZM392.945 35.969C385.891 35.969 380.232 38.062 376.278 42.1706C372.325 46.2791 370.309 51.938 370.309 59.0698C370.309 65.7365 372.325 71.1628 376.201 75.1163C380.077 78.9923 385.348 81.0078 391.937 81.0078C398.837 81.0078 404.34 78.9148 408.294 74.7287C412.325 70.5427 414.263 64.9613 414.263 58.062C414.263 51.2403 412.402 45.814 408.604 41.8605C404.961 37.907 399.612 35.969 392.945 35.969ZM400.93 68.9923C399.069 71.3954 396.123 72.5582 392.48 72.5582C388.759 72.5582 385.891 71.3954 383.798 68.8372C381.705 66.4341 380.697 62.9458 380.697 58.5272C380.697 53.9535 381.782 50.4651 383.798 47.9845C385.891 45.5039 388.759 44.2636 392.403 44.2636C395.891 44.2636 398.759 45.4264 400.775 47.8295C402.79 50.2326 403.875 53.721 403.875 58.2946C403.875 62.9458 402.868 66.5892 400.93 68.9923ZM468.139 45.1938V36.8992H457.984V24.1861L457.674 24.2636L448.061 27.1318L447.829 27.2093V36.8992H432.635V31.4729C432.635 28.9923 433.255 27.0543 434.34 25.814C435.426 24.5737 437.054 23.9535 439.069 23.9535C440.465 23.9535 441.937 24.2636 443.565 24.9613L443.953 25.1938V16.4341L443.72 16.3566C442.325 15.8915 440.464 15.5814 438.061 15.5814C435.038 15.5814 432.403 16.2791 429.999 17.4419C427.596 18.7597 425.813 20.5427 424.495 22.9458C423.178 25.2713 422.48 27.907 422.48 30.9303V36.8992H415.426V45.1163H422.48V79.845H432.635V45.1938H447.829V67.2869C447.829 76.3566 452.092 80.9303 460.62 80.9303C462.015 80.9303 463.488 80.6977 464.883 80.4651C466.356 80.1551 467.441 79.7675 468.061 79.4574L468.139 79.3799V71.0853L467.751 71.3954C467.131 71.783 466.589 72.0931 465.658 72.3256C464.883 72.5582 464.185 72.6357 463.643 72.6357C461.627 72.6357 460.232 72.1706 459.224 71.0078C458.294 69.9225 457.829 68.1396 457.829 65.5039V45.1938H468.139Z" fill="#737373"/>
<path d="M0 0H47.5194V47.5194H0V0Z" fill="#F25022"/>
<path d="M52.4805 0H99.9999V47.5194H52.4805V0Z" fill="#7FBA00"/>
<path d="M0 52.4806H47.5194V100H0V52.4806Z" fill="#00A4EF"/>
<path d="M52.4805 52.4806H99.9999V100H52.4805V52.4806Z" fill="#FFB900"/>
<path d="M798.142 52.6251C798.142 67.0122 786.887 77.6138 773.074 77.6138C759.262 77.6138 748.007 67.0122 748.007 52.6251C748.007 38.1366 759.262 27.6364 773.074 27.6364C786.887 27.6364 798.142 38.1366 798.142 52.6251ZM787.169 52.6251C787.169 43.6345 780.645 37.4831 773.074 37.4831C765.503 37.4831 758.98 43.6345 758.98 52.6251C758.98 61.5255 765.503 67.767 773.074 67.767C780.645 67.767 787.169 61.5142 787.169 52.6251Z" fill="#EA4335"/>
<path d="M852.22 52.6251C852.22 67.0122 840.965 77.6138 827.153 77.6138C813.34 77.6138 802.085 67.0122 802.085 52.6251C802.085 38.1478 813.34 27.6364 827.153 27.6364C840.965 27.6364 852.22 38.1366 852.22 52.6251ZM841.247 52.6251C841.247 43.6345 834.724 37.4831 827.153 37.4831C819.582 37.4831 813.058 43.6345 813.058 52.6251C813.058 61.5255 819.582 67.767 827.153 67.767C834.724 67.767 841.247 61.5142 841.247 52.6251Z" fill="#FBBC05"/>
<path d="M904.045 29.146V74.0086C904.045 92.4628 893.162 100 880.296 100C868.184 100 860.895 91.8995 858.146 85.2749L867.7 81.2979C869.401 85.3651 873.57 90.1645 880.284 90.1645C888.52 90.1645 893.624 85.0834 893.624 75.5183V71.9243H893.241C890.785 74.955 886.053 77.6025 880.082 77.6025C867.587 77.6025 856.141 66.7193 856.141 52.7152C856.141 38.6098 867.587 27.6364 880.082 27.6364C886.041 27.6364 890.773 30.2839 893.241 33.2245H893.624V29.1573H904.045V29.146ZM894.401 52.7152C894.401 43.9162 888.531 37.4831 881.062 37.4831C873.491 37.4831 867.148 43.9162 867.148 52.7152C867.148 61.4241 873.491 67.767 881.062 67.767C888.531 67.767 894.401 61.4241 894.401 52.7152Z" fill="#4285F4"/>
<path d="M921.226 2.8504V76.0816H910.523V2.8504H921.226Z" fill="#34A853"/>
<path d="M962.934 60.8495L971.451 66.5277C968.702 70.5949 962.078 77.6025 950.631 77.6025C936.436 77.6025 925.834 66.6291 925.834 52.6138C925.834 37.7535 936.526 27.6251 949.403 27.6251C962.371 27.6251 968.714 37.945 970.787 43.5219L971.925 46.361L938.52 60.196C941.077 65.2096 945.054 67.767 950.631 67.767C956.219 67.767 960.095 65.018 962.934 60.8495ZM936.717 51.8589L959.047 42.5868C957.819 39.466 954.124 37.2916 949.775 37.2916C944.198 37.2916 936.436 42.215 936.717 51.8589Z" fill="#EA4335"/>
<path d="M707.493 46.1244V35.5228H743.219C743.568 37.3704 743.748 39.5561 743.748 41.922C743.748 49.8761 741.574 59.7116 734.566 66.7192C727.75 73.817 719.041 77.6025 707.504 77.6025C686.121 77.6025 668.14 60.1848 668.14 38.8013C668.14 17.4178 686.121 0 707.504 0C719.334 0 727.761 4.64173 734.093 10.6918L726.612 18.1726C722.072 13.9139 715.92 10.6016 707.493 10.6016C691.878 10.6016 679.665 23.1861 679.665 38.8013C679.665 54.4164 691.878 67.0009 707.493 67.0009C717.621 67.0009 723.39 62.9338 727.085 59.2384C730.082 56.2415 732.054 51.9603 732.831 46.1131L707.493 46.1244Z" fill="#4285F4"/>
<path fill-rule="evenodd" clip-rule="evenodd" d="M1412.24 51.6689C1412.24 34.5794 1403.97 21.0948 1388.15 21.0948C1372.26 21.0948 1362.65 34.5794 1362.65 51.5354C1362.65 71.6288 1373.99 81.7757 1390.28 81.7757C1398.23 81.7757 1404.23 79.9733 1408.77 77.4366V64.0854C1404.23 66.3551 1399.03 67.757 1392.42 67.757C1385.94 67.757 1380.2 65.4873 1379.47 57.6101H1412.11C1412.11 56.7423 1412.24 53.271 1412.24 51.6689ZM1379.27 45.3271C1379.27 37.7837 1383.87 34.6462 1388.08 34.6462C1392.15 34.6462 1396.49 37.7837 1396.49 45.3271H1379.27Z" fill="#32325D"/>
<path fill-rule="evenodd" clip-rule="evenodd" d="M1336.88 21.0948C1330.34 21.0948 1326.13 24.1656 1323.79 26.3017L1322.93 22.1629H1308.24V100L1324.93 96.4619L1325 77.5701C1327.4 79.3057 1330.94 81.7757 1336.81 81.7757C1348.76 81.7757 1359.64 72.1629 1359.64 51.0013C1359.58 31.6422 1348.56 21.0948 1336.88 21.0948ZM1332.87 67.0894C1328.93 67.0894 1326.6 65.6876 1325 63.9519L1324.93 39.1856C1326.66 37.2497 1329.07 35.9146 1332.87 35.9146C1338.95 35.9146 1343.15 42.7236 1343.15 51.4686C1343.15 60.4139 1339.01 67.0894 1332.87 67.0894Z" fill="#32325D"/>
<path fill-rule="evenodd" clip-rule="evenodd" d="M1302.03 0L1285.28 3.53805V17.1562L1302.03 13.5514V0Z" fill="#32325D"/>
<path fill-rule="evenodd" clip-rule="evenodd" d="M1285.28 22.2296H1302.03V80.6408H1285.28V22.2296Z" fill="#32325D"/>
<path fill-rule="evenodd" clip-rule="evenodd" d="M1267.32 27.1696L1266.25 22.2296H1251.83V80.6409H1268.52V41.0547C1272.46 35.9145 1279.13 36.8491 1281.2 37.5834V22.2296C1279.07 21.4286 1271.26 19.9599 1267.32 27.1696Z" fill="#32325D"/>
<path fill-rule="evenodd" clip-rule="evenodd" d="M1233.94 7.74365L1217.65 11.2149L1217.59 64.6862C1217.59 74.5661 1225 81.8425 1234.88 81.8425C1240.35 81.8425 1244.35 80.8411 1246.56 79.6395V66.0881C1244.42 66.9559 1233.87 70.0267 1233.87 60.1469V36.4486H1246.56V22.2296H1233.87L1233.94 7.74365Z" fill="#32325D"/>
<path fill-rule="evenodd" clip-rule="evenodd" d="M1188.81 39.1856C1188.81 36.5821 1190.95 35.5808 1194.49 35.5808C1199.56 35.5808 1205.97 37.1161 1211.04 39.8531V24.1655C1205.5 21.9626 1200.03 21.0948 1194.49 21.0948C1180.94 21.0948 1171.92 28.1709 1171.92 39.9866C1171.92 58.4112 1197.29 55.474 1197.29 63.4179C1197.29 66.4886 1194.62 67.49 1190.88 67.49C1185.34 67.49 1178.27 65.2203 1172.66 62.1495V78.0374C1178.87 80.7076 1185.14 81.8425 1190.88 81.8425C1204.77 81.8425 1214.31 74.9666 1214.31 63.0173C1214.25 43.1242 1188.81 46.6622 1188.81 39.1856Z" fill="#32325D"/>
<path fill-rule="evenodd" clip-rule="evenodd" d="M1818.11 78.203C1798.83 92.4165 1770.88 100 1746.81 100C1713.07 100 1682.69 87.5196 1659.71 66.763C1657.9 65.1304 1659.52 62.9061 1661.69 64.1773C1686.49 78.6075 1717.16 87.2887 1748.83 87.2887C1770.2 87.2887 1793.7 82.8686 1815.31 73.6964C1818.57 72.3096 1821.3 75.8341 1818.11 78.203Z" fill="#FF9900"/>
<path fill-rule="evenodd" clip-rule="evenodd" d="M1826.13 69.0308C1823.67 65.8816 1809.83 67.5428 1803.62 68.2795C1801.73 68.5108 1801.44 66.8639 1803.14 65.6796C1814.17 57.9229 1832.25 60.1618 1834.36 62.7617C1836.47 65.3763 1833.81 83.5041 1823.45 92.1564C1821.86 93.4854 1820.35 92.7776 1821.06 91.0152C1823.38 85.2088 1828.6 72.1942 1826.13 69.0308Z" fill="#FF9900"/>
<path fill-rule="evenodd" clip-rule="evenodd" d="M1804.05 10.92V3.38008C1804.05 2.2389 1804.92 1.47335 1805.96 1.47335H1839.72C1840.8 1.47335 1841.67 2.25316 1841.67 3.38008V9.8366C1841.65 10.92 1840.74 12.3357 1839.13 14.5746L1821.63 39.5492C1828.13 39.3906 1835 40.3582 1840.89 43.6805C1842.22 44.4315 1842.58 45.5295 1842.68 46.6126V54.6583C1842.68 55.756 1841.47 57.0416 1840.2 56.3772C1829.81 50.9318 1816.02 50.3395 1804.53 56.435C1803.36 57.0708 1802.13 55.7995 1802.13 54.7018V47.0606C1802.13 45.8328 1802.15 43.7383 1803.38 41.875L1823.64 12.8125H1806C1804.92 12.8125 1804.05 12.047 1804.05 10.92ZM1680.91 57.966H1670.64C1669.66 57.894 1668.88 57.1574 1668.81 56.2183V3.51016C1668.81 2.45558 1669.69 1.6177 1670.79 1.6177H1680.37C1681.36 1.66084 1682.16 2.42671 1682.23 3.37975V10.2703H1682.42C1684.92 3.61137 1689.61 0.506049 1695.94 0.506049C1702.36 0.506049 1706.38 3.61137 1709.27 10.2703C1711.75 3.61137 1717.4 0.506049 1723.45 0.506049C1727.76 0.506049 1732.47 2.2827 1735.34 6.26937C1738.59 10.7037 1737.93 17.1459 1737.93 22.7938L1737.91 56.0597C1737.91 57.1142 1737.03 57.9664 1735.93 57.9664H1725.68C1724.65 57.8944 1723.83 57.0711 1723.83 56.0597V28.1237C1723.83 25.8991 1724.03 20.3521 1723.54 18.2437C1722.78 14.7046 1720.48 13.7078 1717.5 13.7078C1715.02 13.7078 1712.42 15.369 1711.36 18.027C1710.31 20.685 1710.41 25.1336 1710.41 28.1237V56.0593C1710.41 57.1139 1709.53 57.966 1708.43 57.966H1698.18C1697.14 57.894 1696.33 57.0708 1696.33 56.0593L1696.31 28.1237C1696.31 22.2446 1697.28 13.5927 1689.99 13.5927C1682.6 13.5927 1682.89 22.0279 1682.89 28.1237V56.0593C1682.89 57.1139 1682.01 57.966 1680.91 57.966ZM1870.73 0.505718C1885.97 0.505718 1894.22 13.5923 1894.22 30.2326C1894.22 46.3093 1885.1 59.0641 1870.73 59.0641C1855.77 59.0641 1847.62 45.9772 1847.62 29.6691C1847.62 13.2602 1855.87 0.505718 1870.73 0.505718ZM1870.82 11.2668C1863.25 11.2668 1862.77 21.5803 1862.77 28.0079C1862.77 34.4505 1862.67 48.2015 1870.73 48.2015C1878.69 48.2015 1879.07 37.1082 1879.07 30.348C1879.07 25.8991 1878.88 20.5834 1877.53 16.3658C1876.38 12.6967 1874.08 11.2668 1870.82 11.2668ZM1913.98 57.966H1903.75C1902.73 57.894 1901.9 57.0708 1901.9 56.0593L1901.89 3.33661C1901.97 2.36897 1902.83 1.6177 1903.87 1.6177H1913.39C1914.28 1.66084 1915.02 2.2681 1915.22 3.09105V11.1513H1915.41C1918.28 3.94353 1922.31 0.505718 1929.41 0.505718C1934.01 0.505718 1938.51 2.16655 1941.39 6.71669C1944.08 10.9343 1944.08 18.027 1944.08 23.126V56.3049C1943.97 57.2294 1943.11 57.966 1942.1 57.966H1931.8C1930.86 57.894 1930.08 57.2005 1929.98 56.3049V27.6758C1929.98 21.9124 1930.65 13.4765 1923.56 13.4765C1921.06 13.4765 1918.76 15.1523 1917.62 17.6945C1916.17 20.9159 1915.99 24.1225 1915.99 27.6761V56.0593C1915.97 57.1139 1915.08 57.966 1913.98 57.966ZM1777.14 32.7893C1777.14 36.7903 1777.25 40.1272 1775.22 43.6802C1773.59 46.5695 1770.99 48.3458 1768.12 48.3458C1764.17 48.3458 1761.86 45.3417 1761.86 40.907C1761.86 32.1535 1769.71 30.5647 1777.14 30.5647V32.7893ZM1787.5 57.8217C1786.82 58.4283 1785.84 58.4718 1785.07 58.0673C1781.67 55.236 1781.04 53.9216 1779.18 51.2205C1773.55 56.9695 1769.55 58.6885 1762.25 58.6885C1753.6 58.6885 1746.88 53.3582 1746.88 42.684C1746.88 34.3493 1751.39 28.6726 1757.83 25.8991C1763.41 23.4435 1771.19 23.0101 1777.14 22.3312V21.0025C1777.14 18.5612 1777.33 15.6723 1775.89 13.5635C1774.65 11.6713 1772.25 10.8912 1770.12 10.8912C1766.21 10.8912 1762.73 12.8988 1761.88 17.059C1761.7 17.9835 1761.02 18.8934 1760.09 18.9369L1750.13 17.868C1749.3 17.6802 1748.36 17.0013 1748.6 15.7157C1750.88 3.64024 1761.8 0 1771.57 0C1776.57 0 1783.1 1.329 1787.04 5.11359C1792.04 9.7792 1791.56 16.0044 1791.56 22.7792V38.7836C1791.56 43.5939 1793.55 45.7024 1795.43 48.3027C1796.08 49.2272 1796.23 50.3395 1795.39 51.0327C1793.29 52.7805 1789.57 56.0305 1787.52 57.8506L1787.5 57.8217M1642.51 32.7893C1642.51 36.7903 1642.61 40.1272 1640.59 43.6802C1638.95 46.5695 1636.37 48.3458 1633.48 48.3458C1629.54 48.3458 1627.24 45.3417 1627.24 40.907C1627.24 32.1535 1635.08 30.5647 1642.51 30.5647V32.7893ZM1652.86 57.8217C1652.18 58.4283 1651.2 58.4718 1650.44 58.0673C1647.03 55.236 1646.42 53.9216 1644.54 51.2205C1638.91 56.9695 1634.92 58.6885 1627.61 58.6885C1618.98 58.6885 1612.25 53.3582 1612.25 42.684C1612.25 34.3493 1616.77 28.6726 1623.19 25.8991C1628.77 23.4435 1636.56 23.0101 1642.51 22.3312V21.0025C1642.51 18.5612 1642.69 15.6723 1641.26 13.5635C1640.01 11.6713 1637.61 10.8912 1635.5 10.8912C1631.59 10.8912 1628.09 12.8988 1627.24 17.059C1627.07 17.9835 1626.39 18.8934 1625.46 18.9369L1615.5 17.868C1614.66 17.6802 1613.73 17.0013 1613.96 15.7157C1616.26 3.64024 1627.17 0 1636.93 0C1641.93 0 1648.46 1.329 1652.4 5.11359C1657.4 9.7792 1656.92 16.0044 1656.92 22.7792V38.7836C1656.92 43.5939 1658.92 45.7024 1660.79 48.3027C1661.46 49.2272 1661.6 50.3395 1660.76 51.0327C1658.67 52.7805 1654.94 56.0305 1652.89 57.8506L1652.86 57.8217Z" fill="black"/>
</svg>
